<?xml version="1.0" encoding="UTF-8" standalone="no"?>
<!-- Created with Inkscape (http://www.inkscape.org/) -->

<svg
   xmlns:osb="http://www.openswatchbook.org/uri/2009/osb"
   xmlns:dc="http://purl.org/dc/elements/1.1/"
   xmlns:cc="http://creativecommons.org/ns#"
   xmlns:rdf="http://www.w3.org/1999/02/22-rdf-syntax-ns#"
   xmlns:svg="http://www.w3.org/2000/svg"
   xmlns="http://www.w3.org/2000/svg"
   xmlns:sodipodi="http://sodipodi.sourceforge.net/DTD/sodipodi-0.dtd"
   xmlns:inkscape="http://www.inkscape.org/namespaces/inkscape"
   width="1062.9921"
   height="708.66144"
   id="svg2"
   version="1.1"
   inkscape:version="0.92.1 r15371"
   sodipodi:docname="Caixa3.svg">
  <sodipodi:namedview
     id="base"
     pagecolor="#ffffff"
     bordercolor="#666666"
     borderopacity="1.0"
     inkscape:pageopacity="0.0"
     inkscape:pageshadow="2"
     inkscape:zoom="0.83349634"
     inkscape:cx="436.60502"
     inkscape:cy="332.51296"
     inkscape:document-units="mm"
     inkscape:current-layer="layer9"
     showgrid="true"
     width="1052.36px"
     units="px"
     inkscape:window-width="1366"
     inkscape:window-height="705"
     inkscape:window-x="-8"
     inkscape:window-y="-8"
     inkscape:window-maximized="1"
     showguides="true"
     inkscape:snap-global="false"
     inkscape:guide-bbox="true"
     inkscape:measure-start="852.883,136.623"
     inkscape:measure-end="852.883,50.3901">
    <inkscape:grid
       snapvisiblegridlinesonly="true"
       enabled="true"
       visible="true"
       empspacing="5"
       id="grid3013"
       type="xygrid"
       originx="141.73228"
       originy="106.29921"
       units="mm"
       spacingx="37.795276"
       dotted="false"
       spacingy="37.795276" />
    <inkscape:grid
       type="xygrid"
       id="grid4231"
       enabled="false" />
    <sodipodi:guide
       position="141.73228,558.06249"
       orientation="1,0"
       id="guide4454"
       inkscape:label=""
       inkscape:color="rgb(0,0,255)"
       inkscape:locked="false" />
    <sodipodi:guide
       position="167,106.29921"
       orientation="0,1"
       id="guide4456"
       inkscape:label=""
       inkscape:color="rgb(0,0,255)"
       inkscape:locked="false" />
    <sodipodi:guide
       position="-21.999999,602.3622"
       orientation="0,1"
       id="guide4484"
       inkscape:label=""
       inkscape:color="rgb(0,0,255)"
       inkscape:locked="false" />
    <sodipodi:guide
       position="921.25984,422"
       orientation="1,0"
       id="guide4493"
       inkscape:label=""
       inkscape:color="rgb(0,0,255)"
       inkscape:locked="false" />
  </sodipodi:namedview>
  <defs
     id="defs4">
    <linearGradient
       id="linearGradient6115"
       osb:paint="solid">
      <stop
         style="stop-color:#000000;stop-opacity:1;"
         offset="0"
         id="stop6117" />
    </linearGradient>
    <inkscape:path-effect
       effect="sketch"
       id="path-effect3350"
       is_visible="true"
       nbiter_approxstrokes="1"
       strokelength="100"
       strokelength_rdm="0.3;1"
       strokeoverlap="0.3"
       strokeoverlap_rdm="0.3;1"
       ends_tolerance="0.1;1"
       parallel_offset="5;1"
       tremble_size="5;1"
       tremble_frequency="1"
       nbtangents="5"
       tgt_places_rdmness="1;1"
       tgtscale="10"
       tgtlength="100"
       tgtlength_rdm="0.3;1" />
    <linearGradient
       id="linearGradient4153"
       osb:paint="solid">
      <stop
         style="stop-color:#000000;stop-opacity:1;"
         offset="0"
         id="stop4155" />
    </linearGradient>
    <clipPath
       id="clipPath3359"
       clipPathUnits="userSpaceOnUse">
      <path
         inkscape:connector-curvature="0"
         id="path3361"
         d="M 0,1080 H 1080 V 0 H 0 Z" />
    </clipPath>
    <style
       id="style3400"
       type="text/css">
    .str0 {stroke:#00AFEF;stroke-width:3}
    .str1 {stroke:#373435;stroke-width:3}
    .fil1 {fill:none}
    .fil0 {fill:none;fill-rule:nonzero}
   </style>
    <linearGradient
       id="linearGradient5945"
       spreadMethod="pad"
       gradientTransform="matrix(239.15882,0,0,-230.27346,268.63568,468.39721)"
       gradientUnits="userSpaceOnUse"
       y2="0"
       x2="1"
       y1="0"
       x1="0">
      <stop
         id="stop5947"
         offset="0"
         style="stop-opacity:1;stop-color:#ed2790" />
      <stop
         id="stop5949"
         offset="0.263733"
         style="stop-opacity:1;stop-color:#ed2790" />
      <stop
         id="stop5951"
         offset="0.571426"
         style="stop-opacity:1;stop-color:#ed2790" />
      <stop
         id="stop5953"
         offset="0.813187"
         style="stop-opacity:1;stop-color:#ed2790" />
      <stop
         id="stop5955"
         offset="1"
         style="stop-opacity:1;stop-color:#ed2790" />
    </linearGradient>
    <linearGradient
       id="linearGradient5971"
       spreadMethod="pad"
       gradientTransform="matrix(201.62596,0,0,-201.62596,287.40199,468.39721)"
       gradientUnits="userSpaceOnUse"
       y2="0"
       x2="1"
       y1="0"
       x1="0">
      <stop
         id="stop5973"
         offset="0"
         style="stop-opacity:1;stop-color:#ed2790" />
      <stop
         id="stop5975"
         offset="0.263733"
         style="stop-opacity:1;stop-color:#ed2790" />
      <stop
         id="stop5977"
         offset="0.571426"
         style="stop-opacity:1;stop-color:#ed2790" />
      <stop
         id="stop5979"
         offset="0.813187"
         style="stop-opacity:1;stop-color:#ed2790" />
      <stop
         id="stop5981"
         offset="1"
         style="stop-opacity:1;stop-color:#ed2790" />
    </linearGradient>
    <linearGradient
       id="linearGradient5997"
       spreadMethod="pad"
       gradientTransform="matrix(157.46866,0,0,-157.46866,277.0847,437.56709)"
       gradientUnits="userSpaceOnUse"
       y2="0"
       x2="1"
       y1="0"
       x1="0">
      <stop
         id="stop5999"
         offset="0"
         style="stop-opacity:1;stop-color:#a2356a" />
      <stop
         id="stop6001"
         offset="0.263733"
         style="stop-opacity:1;stop-color:#a2356a" />
      <stop
         id="stop6003"
         offset="0.571426"
         style="stop-opacity:1;stop-color:#a2356a" />
      <stop
         id="stop6005"
         offset="0.813187"
         style="stop-opacity:1;stop-color:#a2356a" />
      <stop
         id="stop6007"
         offset="1"
         style="stop-opacity:1;stop-color:#a2356a" />
    </linearGradient>
  </defs>
  <metadata
     id="metadata7">
    <rdf:RDF>
      <cc:Work
         rdf:about="">
        <dc:format>image/svg+xml</dc:format>
        <dc:type
           rdf:resource="http://purl.org/dc/dcmitype/StillImage" />
        <dc:title />
      </cc:Work>
    </rdf:RDF>
  </metadata>
  <g
     style="display:inline"
     inkscape:label="10 [ppm=30,feed=300]"
     id="layer3"
     inkscape:groupmode="layer"
     transform="translate(0,-106.29921)">
    <path
       inkscape:connector-curvature="0"
       id="path6127"
       d="m -623.93186,458.19184 v 6.71449 h 28.31086 v -6.69082"
       style="fill:none;fill-rule:evenodd;stroke:#000000;stroke-width:0.03558799;stroke-linecap:butt;stroke-linejoin:miter;stroke-miterlimit:4;stroke-dasharray:none;stroke-opacity:1" />
  </g>
  <g
     inkscape:groupmode="layer"
     id="layer4"
     inkscape:label="68 [ppm=25,feed=480]" />
  <g
     inkscape:groupmode="layer"
     id="layer7"
     inkscape:label="68 [ppm=15,feed=480]">
    <g
       id="g3882" />
    <g
       id="g3984">
      <g
         id="g3980" />
      <g
         id="g3982" />
    </g>
    <g
       transform="matrix(1.0666658,0,0,1.0666658,15.48,53.456987)"
       id="g4535">
      <polygon
         style="fill:none;stroke:#000000;stroke-width:0.90000075"
         points="99.21268,7.08662 99.21268,0 113.38592,0 113.38592,7.08662 127.55916,7.08662 127.55916,0 141.7324,0 141.7324,7.08662 155.90564,7.08662 155.90564,0 170.07888,0 170.07888,7.08662 184.25212,7.08662 184.25212,0 198.42536,0 198.42536,7.08662 212.5986,7.08662 212.5986,0 226.77184,0 226.77184,7.08662 240.94508,7.08662 240.94508,0 255.11832,0 255.11832,7.08662 269.29156,7.08662 269.29156,0 283.4648,0 283.4648,7.08662 297.63804,7.08662 297.63804,0 311.81128,0 311.81128,7.08662 333.07114,7.08662 333.07114,0 354.331,0 354.331,17.71655 347.24438,17.71655 347.24438,35.4331 354.331,35.4331 354.331,49.60634 347.24438,49.60634 347.24438,63.77958 354.331,63.77958 354.331,77.95282 347.24438,77.95282 347.24438,92.12606 354.331,92.12606 354.331,106.2993 347.24438,106.2993 347.24438,120.47254 354.331,120.47254 354.331,134.64578 347.24438,134.64578 347.24438,148.81902 354.331,148.81902 354.331,162.99226 347.24438,162.99226 347.24438,177.1655 354.331,177.1655 354.331,191.33874 347.24438,191.33874 347.24438,205.51198 354.331,205.51198 354.331,219.68522 347.24438,219.68522 347.24438,233.85846 354.331,233.85846 354.331,248.0317 347.24438,248.0317 347.24438,265.74825 354.331,265.74825 354.331,283.4648 333.07114,283.4648 333.07114,276.37818 311.81128,276.37818 311.81128,283.4648 297.63804,283.4648 297.63804,276.37818 283.4648,276.37818 283.4648,283.4648 269.29156,283.4648 269.29156,276.37818 255.11832,276.37818 255.11832,283.4648 240.94508,283.4648 240.94508,276.37818 226.77184,276.37818 226.77184,283.4648 212.5986,283.4648 212.5986,276.37818 198.42536,276.37818 198.42536,283.4648 184.25212,283.4648 184.25212,276.37818 170.07888,276.37818 170.07888,283.4648 155.90564,283.4648 155.90564,276.37818 141.7324,276.37818 141.7324,283.4648 127.55916,283.4648 127.55916,276.37818 113.38592,276.37818 113.38592,283.4648 99.21268,283.4648 99.21268,276.37818 85.03944,276.37818 85.03944,283.4648 70.8662,283.4648 70.8662,276.37818 56.69296,276.37818 56.69296,283.4648 42.51972,283.4648 42.51972,276.37818 21.25986,276.37818 21.25986,283.4648 0,283.4648 0,265.74825 7.08662,265.74825 7.08662,248.0317 0,248.0317 0,233.85846 7.08662,233.85846 7.08662,219.68522 0,219.68522 0,205.51198 7.08662,205.51198 7.08662,191.33874 0,191.33874 0,177.1655 7.08662,177.1655 7.08662,162.99226 0,162.99226 0,148.81902 7.08662,148.81902 7.08662,134.64578 0,134.64578 0,120.47254 7.08662,120.47254 7.08662,106.2993 0,106.2993 0,92.12606 7.08662,92.12606 7.08662,77.95282 0,77.95282 0,63.77958 7.08662,63.77958 7.08662,49.60634 0,49.60634 0,35.4331 7.08662,35.4331 7.08662,17.71655 0,17.71655 0,0 21.25986,0 21.25986,7.08662 42.51972,7.08662 42.51972,0 56.69296,0 56.69296,7.08662 70.8662,7.08662 70.8662,0 85.03944,0 85.03944,7.08662 "
         id="polygon4533" />
    </g>
    <g
       transform="matrix(1.0666658,0,0,1.0666658,393.43277,53.456987)"
       id="g4539">
      <polygon
         style="fill:none;stroke:#000000;stroke-width:0.90000075"
         points="99.21268,7.08662 99.21268,0 113.38592,0 113.38592,7.08662 127.55916,7.08662 127.55916,0 141.7324,0 141.7324,7.08662 155.90564,7.08662 155.90564,0 170.07888,0 170.07888,7.08662 184.25212,7.08662 184.25212,0 198.42536,0 198.42536,7.08662 212.5986,7.08662 212.5986,0 226.77184,0 226.77184,7.08662 240.94508,7.08662 240.94508,0 255.11832,0 255.11832,7.08662 269.29156,7.08662 269.29156,0 283.4648,0 283.4648,7.08662 297.63804,7.08662 297.63804,0 311.81128,0 311.81128,7.08662 333.07114,7.08662 333.07114,0 354.331,0 354.331,17.71655 347.24438,17.71655 347.24438,35.4331 354.331,35.4331 354.331,49.60634 347.24438,49.60634 347.24438,63.77958 354.331,63.77958 354.331,77.95282 347.24438,77.95282 347.24438,92.12606 354.331,92.12606 354.331,106.2993 347.24438,106.2993 347.24438,120.47254 354.331,120.47254 354.331,134.64578 347.24438,134.64578 347.24438,148.81902 354.331,148.81902 354.331,162.99226 347.24438,162.99226 347.24438,177.1655 354.331,177.1655 354.331,191.33874 347.24438,191.33874 347.24438,205.51198 354.331,205.51198 354.331,219.68522 347.24438,219.68522 347.24438,233.85846 354.331,233.85846 354.331,248.0317 347.24438,248.0317 347.24438,265.74825 354.331,265.74825 354.331,283.4648 333.07114,283.4648 333.07114,276.37818 311.81128,276.37818 311.81128,283.4648 297.63804,283.4648 297.63804,276.37818 283.4648,276.37818 283.4648,283.4648 269.29156,283.4648 269.29156,276.37818 255.11832,276.37818 255.11832,283.4648 240.94508,283.4648 240.94508,276.37818 226.77184,276.37818 226.77184,283.4648 212.5986,283.4648 212.5986,276.37818 198.42536,276.37818 198.42536,283.4648 184.25212,283.4648 184.25212,276.37818 170.07888,276.37818 170.07888,283.4648 155.90564,283.4648 155.90564,276.37818 141.7324,276.37818 141.7324,283.4648 127.55916,283.4648 127.55916,276.37818 113.38592,276.37818 113.38592,283.4648 99.21268,283.4648 99.21268,276.37818 85.03944,276.37818 85.03944,283.4648 70.8662,283.4648 70.8662,276.37818 56.69296,276.37818 56.69296,283.4648 42.51972,283.4648 42.51972,276.37818 21.25986,276.37818 21.25986,283.4648 0,283.4648 0,265.74825 7.08662,265.74825 7.08662,248.0317 0,248.0317 0,233.85846 7.08662,233.85846 7.08662,219.68522 0,219.68522 0,205.51198 7.08662,205.51198 7.08662,191.33874 0,191.33874 0,177.1655 7.08662,177.1655 7.08662,162.99226 0,162.99226 0,148.81902 7.08662,148.81902 7.08662,134.64578 0,134.64578 0,120.47254 7.08662,120.47254 7.08662,106.2993 0,106.2993 0,92.12606 7.08662,92.12606 7.08662,77.95282 0,77.95282 0,63.77958 7.08662,63.77958 7.08662,49.60634 0,49.60634 0,35.4331 7.08662,35.4331 7.08662,17.71655 0,17.71655 0,0 21.25986,0 21.25986,7.08662 42.51972,7.08662 42.51972,0 56.69296,0 56.69296,7.08662 70.8662,7.08662 70.8662,0 85.03944,0 85.03944,7.08662 "
         id="polygon4537" />
    </g>
    <g
       transform="matrix(1.0666658,0,0,1.0666658,771.38555,53.456987)"
       id="g4543">
      <polygon
         style="fill:none;stroke:#000000;stroke-width:0.90000075"
         points="102.75599,7.08662 102.75599,0 116.92923,0 116.92923,7.08662 131.10247,7.08662 131.10247,0 145.27571,0 145.27571,7.08662 159.44895,7.08662 159.44895,0 173.62219,0 173.62219,7.08662 187.79543,7.08662 187.79543,0 201.96867,0 201.96867,7.08662 225.00018,7.08662 225.00018,0 240.94508,0 240.94508,17.71655 248.0317,17.71655 248.0317,35.4331 240.94508,35.4331 240.94508,49.60634 248.0317,49.60634 248.0317,63.77958 240.94508,63.77958 240.94508,77.95282 248.0317,77.95282 248.0317,92.12606 240.94508,92.12606 240.94508,106.2993 248.0317,106.2993 248.0317,120.47254 240.94508,120.47254 240.94508,134.64578 248.0317,134.64578 248.0317,148.81902 240.94508,148.81902 240.94508,162.99226 248.0317,162.99226 248.0317,177.1655 240.94508,177.1655 240.94508,191.33874 248.0317,191.33874 248.0317,205.51198 240.94508,205.51198 240.94508,219.68522 248.0317,219.68522 248.0317,233.85846 240.94508,233.85846 240.94508,248.0317 248.0317,248.0317 248.0317,265.74825 240.94508,265.74825 240.94508,283.4648 225.00018,283.4648 225.00018,276.37818 201.96867,276.37818 201.96867,283.4648 187.79543,283.4648 187.79543,276.37818 173.62219,276.37818 173.62219,283.4648 159.44895,283.4648 159.44895,276.37818 145.27571,276.37818 145.27571,283.4648 131.10247,283.4648 131.10247,276.37818 116.92923,276.37818 116.92923,283.4648 102.75599,283.4648 102.75599,276.37818 88.58275,276.37818 88.58275,283.4648 74.40951,283.4648 74.40951,276.37818 60.23627,276.37818 60.23627,283.4648 46.06303,283.4648 46.06303,276.37818 23.031515,276.37818 23.031515,283.4648 7.08662,283.4648 7.08662,265.74825 0,265.74825 0,248.0317 7.08662,248.0317 7.08662,233.85846 0,233.85846 0,219.68522 7.08662,219.68522 7.08662,205.51198 0,205.51198 0,191.33874 7.08662,191.33874 7.08662,177.1655 0,177.1655 0,162.99226 7.08662,162.99226 7.08662,148.81902 0,148.81902 0,134.64578 7.08662,134.64578 7.08662,120.47254 0,120.47254 0,106.2993 7.08662,106.2993 7.08662,92.12606 0,92.12606 0,77.95282 7.08662,77.95282 7.08662,63.77958 0,63.77958 0,49.60634 7.08662,49.60634 7.08662,35.4331 0,35.4331 0,17.71655 7.08662,17.71655 7.08662,0 23.031515,0 23.031515,7.08662 46.06303,7.08662 46.06303,0 60.23627,0 60.23627,7.08662 74.40951,7.08662 74.40951,0 88.58275,0 88.58275,7.08662 "
         id="polygon4541" />
    </g>
    <g
       transform="matrix(1.0666658,0,0,1.0666658,771.38555,355.81921)"
       id="g4547">
      <polygon
         style="fill:none;stroke:#000000;stroke-width:0.90000075"
         points="102.75599,7.08662 102.75599,0 116.92923,0 116.92923,7.08662 131.10247,7.08662 131.10247,0 145.27571,0 145.27571,7.08662 159.44895,7.08662 159.44895,0 173.62219,0 173.62219,7.08662 187.79543,7.08662 187.79543,0 201.96867,0 201.96867,7.08662 225.00018,7.08662 225.00018,0 240.94508,0 240.94508,17.71655 248.0317,17.71655 248.0317,35.4331 240.94508,35.4331 240.94508,49.60634 248.0317,49.60634 248.0317,63.77958 240.94508,63.77958 240.94508,77.95282 248.0317,77.95282 248.0317,92.12606 240.94508,92.12606 240.94508,106.2993 248.0317,106.2993 248.0317,120.47254 240.94508,120.47254 240.94508,134.64578 248.0317,134.64578 248.0317,148.81902 240.94508,148.81902 240.94508,162.99226 248.0317,162.99226 248.0317,177.1655 240.94508,177.1655 240.94508,191.33874 248.0317,191.33874 248.0317,205.51198 240.94508,205.51198 240.94508,219.68522 248.0317,219.68522 248.0317,233.85846 240.94508,233.85846 240.94508,248.0317 248.0317,248.0317 248.0317,265.74825 240.94508,265.74825 240.94508,283.4648 225.00018,283.4648 225.00018,276.37818 201.96867,276.37818 201.96867,283.4648 187.79543,283.4648 187.79543,276.37818 173.62219,276.37818 173.62219,283.4648 159.44895,283.4648 159.44895,276.37818 145.27571,276.37818 145.27571,283.4648 131.10247,283.4648 131.10247,276.37818 116.92923,276.37818 116.92923,283.4648 102.75599,283.4648 102.75599,276.37818 88.58275,276.37818 88.58275,283.4648 74.40951,283.4648 74.40951,276.37818 60.23627,276.37818 60.23627,283.4648 46.06303,283.4648 46.06303,276.37818 23.031515,276.37818 23.031515,283.4648 7.08662,283.4648 7.08662,265.74825 0,265.74825 0,248.0317 7.08662,248.0317 7.08662,233.85846 0,233.85846 0,219.68522 7.08662,219.68522 7.08662,205.51198 0,205.51198 0,191.33874 7.08662,191.33874 7.08662,177.1655 0,177.1655 0,162.99226 7.08662,162.99226 7.08662,148.81902 0,148.81902 0,134.64578 7.08662,134.64578 7.08662,120.47254 0,120.47254 0,106.2993 7.08662,106.2993 7.08662,92.12606 0,92.12606 0,77.95282 7.08662,77.95282 7.08662,63.77958 0,63.77958 0,49.60634 7.08662,49.60634 7.08662,35.4331 0,35.4331 0,17.71655 7.08662,17.71655 7.08662,0 23.031515,0 23.031515,7.08662 46.06303,7.08662 46.06303,0 60.23627,0 60.23627,7.08662 74.40951,7.08662 74.40951,0 88.58275,0 88.58275,7.08662 "
         id="polygon4545" />
    </g>
    <g
       transform="matrix(1.0666658,0,0,1.0666658,15.48,355.81921)"
       id="g4551">
      <polygon
         style="fill:none;stroke:#000000;stroke-width:0.90000075"
         points="99.21268,0 99.21268,7.08662 113.38592,7.08662 113.38592,0 127.55916,0 127.55916,7.08662 141.7324,7.08662 141.7324,0 155.90564,0 155.90564,7.08662 170.07888,7.08662 170.07888,0 184.25212,0 184.25212,7.08662 198.42536,7.08662 198.42536,0 212.5986,0 212.5986,7.08662 226.77184,7.08662 226.77184,0 240.94508,0 240.94508,7.08662 255.11832,7.08662 255.11832,0 269.29156,0 269.29156,7.08662 283.4648,7.08662 283.4648,0 297.63804,0 297.63804,7.08662 311.81128,7.08662 311.81128,0 333.07114,0 333.07114,7.08662 347.24438,7.08662 347.24438,23.031515 354.331,23.031515 354.331,46.06303 347.24438,46.06303 347.24438,60.23627 354.331,60.23627 354.331,74.40951 347.24438,74.40951 347.24438,88.58275 354.331,88.58275 354.331,102.75599 347.24438,102.75599 347.24438,116.92923 354.331,116.92923 354.331,131.10247 347.24438,131.10247 347.24438,145.27571 354.331,145.27571 354.331,159.44895 347.24438,159.44895 347.24438,173.62219 354.331,173.62219 354.331,187.79543 347.24438,187.79543 347.24438,201.96867 354.331,201.96867 354.331,225.00018 347.24438,225.00018 347.24438,240.94508 333.07114,240.94508 333.07114,248.0317 311.81128,248.0317 311.81128,240.94508 297.63804,240.94508 297.63804,248.0317 283.4648,248.0317 283.4648,240.94508 269.29156,240.94508 269.29156,248.0317 255.11832,248.0317 255.11832,240.94508 240.94508,240.94508 240.94508,248.0317 226.77184,248.0317 226.77184,240.94508 212.5986,240.94508 212.5986,248.0317 198.42536,248.0317 198.42536,240.94508 184.25212,240.94508 184.25212,248.0317 170.07888,248.0317 170.07888,240.94508 155.90564,240.94508 155.90564,248.0317 141.7324,248.0317 141.7324,240.94508 127.55916,240.94508 127.55916,248.0317 113.38592,248.0317 113.38592,240.94508 99.21268,240.94508 99.21268,248.0317 85.03944,248.0317 85.03944,240.94508 70.8662,240.94508 70.8662,248.0317 56.69296,248.0317 56.69296,240.94508 42.51972,240.94508 42.51972,248.0317 21.25986,248.0317 21.25986,240.94508 7.08662,240.94508 7.08662,225.00018 0,225.00018 0,201.96867 7.08662,201.96867 7.08662,187.79543 0,187.79543 0,173.62219 7.08662,173.62219 7.08662,159.44895 0,159.44895 0,145.27571 7.08662,145.27571 7.08662,131.10247 0,131.10247 0,116.92923 7.08662,116.92923 7.08662,102.75599 0,102.75599 0,88.58275 7.08662,88.58275 7.08662,74.40951 0,74.40951 0,60.23627 7.08662,60.23627 7.08662,46.06303 0,46.06303 0,23.031515 7.08662,23.031515 7.08662,7.08662 21.25986,7.08662 21.25986,0 42.51972,0 42.51972,7.08662 56.69296,7.08662 56.69296,0 70.8662,0 70.8662,7.08662 85.03944,7.08662 85.03944,0 "
         id="polygon4549" />
    </g>
    <polygon
       transform="matrix(1.0666658,0,0,1.0666658,393.43277,355.81921)"
       style="fill:none;stroke:#000000;stroke-width:0.90000075"
       points="99.21268,0 99.21268,7.08662 113.38592,7.08662 113.38592,0 127.55916,0 127.55916,7.08662 141.7324,7.08662 141.7324,0 155.90564,0 155.90564,7.08662 170.07888,7.08662 170.07888,0 184.25212,0 184.25212,7.08662 198.42536,7.08662 198.42536,0 212.5986,0 212.5986,7.08662 226.77184,7.08662 226.77184,0 240.94508,0 240.94508,7.08662 255.11832,7.08662 255.11832,0 269.29156,0 269.29156,7.08662 283.4648,7.08662 283.4648,0 297.63804,0 297.63804,7.08662 311.81128,7.08662 311.81128,0 333.07114,0 333.07114,7.08662 347.24438,7.08662 347.24438,23.031515 354.331,23.031515 354.331,46.06303 347.24438,46.06303 347.24438,60.23627 354.331,60.23627 354.331,74.40951 347.24438,74.40951 347.24438,88.58275 354.331,88.58275 354.331,102.75599 347.24438,102.75599 347.24438,116.92923 354.331,116.92923 354.331,131.10247 347.24438,131.10247 347.24438,145.27571 354.331,145.27571 354.331,159.44895 347.24438,159.44895 347.24438,173.62219 354.331,173.62219 354.331,187.79543 347.24438,187.79543 347.24438,201.96867 354.331,201.96867 354.331,225.00018 347.24438,225.00018 347.24438,240.94508 333.07114,240.94508 333.07114,248.0317 311.81128,248.0317 311.81128,240.94508 297.63804,240.94508 297.63804,248.0317 283.4648,248.0317 283.4648,240.94508 269.29156,240.94508 269.29156,248.0317 255.11832,248.0317 255.11832,240.94508 240.94508,240.94508 240.94508,248.0317 226.77184,248.0317 226.77184,240.94508 212.5986,240.94508 212.5986,248.0317 198.42536,248.0317 198.42536,240.94508 184.25212,240.94508 184.25212,248.0317 170.07888,248.0317 170.07888,240.94508 155.90564,240.94508 155.90564,248.0317 141.7324,248.0317 141.7324,240.94508 127.55916,240.94508 127.55916,248.0317 113.38592,248.0317 113.38592,240.94508 99.21268,240.94508 99.21268,248.0317 85.03944,248.0317 85.03944,240.94508 70.8662,240.94508 70.8662,248.0317 56.69296,248.0317 56.69296,240.94508 42.51972,240.94508 42.51972,248.0317 21.25986,248.0317 21.25986,240.94508 7.08662,240.94508 7.08662,225.00018 0,225.00018 0,201.96867 7.08662,201.96867 7.08662,187.79543 0,187.79543 0,173.62219 7.08662,173.62219 7.08662,159.44895 0,159.44895 0,145.27571 7.08662,145.27571 7.08662,131.10247 0,131.10247 0,116.92923 7.08662,116.92923 7.08662,102.75599 0,102.75599 0,88.58275 7.08662,88.58275 7.08662,74.40951 0,74.40951 0,60.23627 7.08662,60.23627 7.08662,46.06303 0,46.06303 0,23.031515 7.08662,23.031515 7.08662,7.08662 21.25986,7.08662 21.25986,0 42.51972,0 42.51972,7.08662 56.69296,7.08662 56.69296,0 70.8662,0 70.8662,7.08662 85.03944,7.08662 85.03944,0 "
       id="polygon4553" />
  </g>
  <g
     inkscape:groupmode="layer"
     id="layer9"
     inkscape:label="68 [ppm=15,feed=480]"
     style="display:inline">
    <circle
       style="fill:none;fill-opacity:1;stroke:#000000;stroke-width:0.94488192;stroke-miterlimit:4;stroke-dasharray:none;stroke-opacity:1"
       id="path5155"
       cx="123.30708"
       cy="389.29135"
       r="5.6692915" />
    <circle
       style="display:inline;fill:none;fill-opacity:1;stroke:#000000;stroke-width:0.94488192;stroke-miterlimit:4;stroke-dasharray:none;stroke-opacity:1"
       id="path5155-1"
       cx="342.51971"
       cy="389.29135"
       r="5.6692915" />
    <circle
       style="display:inline;fill:none;fill-opacity:1;stroke:#000000;stroke-width:0.94488192;stroke-miterlimit:4;stroke-dasharray:none;stroke-opacity:1"
       id="path5155-1-8"
       cx="342.51971"
       cy="574.86609"
       r="5.6692915" />
    <circle
       style="display:inline;fill:none;fill-opacity:1;stroke:#000000;stroke-width:0.94488192;stroke-miterlimit:4;stroke-dasharray:none;stroke-opacity:1"
       id="path5155-3"
       cx="123.30708"
       cy="574.48816"
       r="5.6692915" />
    <rect
       style="fill:none;fill-opacity:1;stroke:#000000;stroke-width:1.25144267;stroke-miterlimit:4;stroke-dasharray:none;stroke-opacity:1"
       id="rect4590"
       width="55.441471"
       height="36.543835"
       x="665.94727"
       y="293.53912" />
    <rect
       style="fill:none;fill-opacity:1;stroke:#000000;stroke-width:0.56976652;stroke-miterlimit:4;stroke-dasharray:none;stroke-opacity:1"
       id="rect4592"
       width="3.2097609"
       height="112.81606"
       x="444.2291"
       y="73.46019" />
    <rect
       style="display:inline;fill:none;fill-opacity:1;stroke:#000000;stroke-width:0.56976652;stroke-miterlimit:4;stroke-dasharray:none;stroke-opacity:1"
       id="rect4592-6"
       width="3.2097609"
       height="112.81606"
       x="482.02347"
       y="73.46019" />
    <rect
       style="display:inline;fill:none;fill-opacity:1;stroke:#000000;stroke-width:0.56976652;stroke-miterlimit:4;stroke-dasharray:none;stroke-opacity:1"
       id="rect4592-9"
       width="3.2097609"
       height="112.81606"
       x="595.4093"
       y="73.46019" />
    <rect
       style="display:inline;fill:none;fill-opacity:1;stroke:#000000;stroke-width:0.56976652;stroke-miterlimit:4;stroke-dasharray:none;stroke-opacity:1"
       id="rect4592-0"
       width="3.2097609"
       height="112.81606"
       x="519.81873"
       y="73.46019" />
    <rect
       style="display:inline;fill:none;fill-opacity:1;stroke:#000000;stroke-width:0.56976652;stroke-miterlimit:4;stroke-dasharray:none;stroke-opacity:1"
       id="rect4592-1"
       width="3.2097609"
       height="112.81606"
       x="557.61401"
       y="73.46019" />
    <rect
       style="display:inline;fill:none;fill-opacity:1;stroke:#000000;stroke-width:0.56976652;stroke-miterlimit:4;stroke-dasharray:none;stroke-opacity:1"
       id="rect4592-7"
       width="3.2097609"
       height="112.81606"
       x="633.20459"
       y="73.46019" />
    <rect
       style="display:inline;fill:none;fill-opacity:1;stroke:#000000;stroke-width:0.56976652;stroke-miterlimit:4;stroke-dasharray:none;stroke-opacity:1"
       id="rect4592-65"
       width="3.2097609"
       height="112.81606"
       x="670.99982"
       y="73.46019" />
    <rect
       style="display:inline;fill:none;fill-opacity:1;stroke:#000000;stroke-width:0.56976652;stroke-miterlimit:4;stroke-dasharray:none;stroke-opacity:1"
       id="rect4592-4"
       width="3.2097609"
       height="112.81606"
       x="708.7951"
       y="73.46019" />
    <rect
       style="display:inline;fill:none;fill-opacity:1;stroke:#000000;stroke-width:0.56976652;stroke-miterlimit:4;stroke-dasharray:none;stroke-opacity:1"
       id="rect4592-8"
       width="3.2097609"
       height="112.81606"
       x="822.18097"
       y="73.46019" />
    <rect
       style="display:inline;fill:none;fill-opacity:1;stroke:#000000;stroke-width:0.56976652;stroke-miterlimit:4;stroke-dasharray:none;stroke-opacity:1"
       id="rect4592-8-8"
       width="3.2097609"
       height="112.81606"
       x="859.9762"
       y="73.46019" />
    <rect
       style="display:inline;fill:none;fill-opacity:1;stroke:#000000;stroke-width:0.56976652;stroke-miterlimit:4;stroke-dasharray:none;stroke-opacity:1"
       id="rect4592-8-7"
       width="3.2097609"
       height="112.81606"
       x="897.77148"
       y="73.46019" />
    <rect
       style="display:inline;fill:none;fill-opacity:1;stroke:#000000;stroke-width:0.56976652;stroke-miterlimit:4;stroke-dasharray:none;stroke-opacity:1"
       id="rect4592-8-3"
       width="3.2097609"
       height="112.81606"
       x="822.18097"
       y="375.59198" />
    <rect
       style="display:inline;fill:none;fill-opacity:1;stroke:#000000;stroke-width:0.56976652;stroke-miterlimit:4;stroke-dasharray:none;stroke-opacity:1"
       id="rect4592-8-3-4"
       width="3.2097609"
       height="112.81606"
       x="859.9762"
       y="375.59198" />
    <rect
       style="display:inline;fill:none;fill-opacity:1;stroke:#000000;stroke-width:0.56976652;stroke-miterlimit:4;stroke-dasharray:none;stroke-opacity:1"
       id="rect4592-8-3-6"
       width="3.2097609"
       height="112.81606"
       x="897.77148"
       y="375.59198" />
    <rect
       style="display:inline;fill:none;fill-opacity:1;stroke:#000000;stroke-width:0.56976652;stroke-miterlimit:4;stroke-dasharray:none;stroke-opacity:1"
       id="rect4592-8-7-2"
       width="3.2097609"
       height="112.81606"
       x="935.56677"
       y="73.46019" />
    <rect
       style="display:inline;fill:none;fill-opacity:1;stroke:#000000;stroke-width:0.56976652;stroke-miterlimit:4;stroke-dasharray:none;stroke-opacity:1"
       id="rect4592-8-7-1"
       width="3.2097609"
       height="112.81606"
       x="973.36206"
       y="73.46019" />
    <rect
       style="display:inline;fill:none;fill-opacity:1;stroke:#000000;stroke-width:0.56976652;stroke-miterlimit:4;stroke-dasharray:none;stroke-opacity:1"
       id="rect4592-8-3-6-1"
       width="3.2097609"
       height="112.81606"
       x="935.56677"
       y="375.59198" />
    <rect
       style="display:inline;fill:none;fill-opacity:1;stroke:#000000;stroke-width:0.56976652;stroke-miterlimit:4;stroke-dasharray:none;stroke-opacity:1"
       id="rect4592-8-3-6-8"
       width="3.2097609"
       height="112.81606"
       x="973.36206"
       y="375.59198" />
    <rect
       style="fill:none;fill-opacity:1;stroke:#000000;stroke-width:1.06681955;stroke-miterlimit:4;stroke-dasharray:none;stroke-opacity:1"
       id="rect4747"
       width="59.405621"
       height="48.067039"
       x="801.79327"
       y="575.53943" />
    <rect
       style="fill:none;fill-opacity:1;stroke:#000000;stroke-width:0.67709976;stroke-miterlimit:4;stroke-dasharray:none;stroke-opacity:1"
       id="rect4749"
       width="99.480377"
       height="73.14463"
       x="142.59241"
       y="104.37007" />
    <ellipse
       style="display:inline;fill:none;fill-opacity:1;stroke:#000000;stroke-width:0.654149;stroke-miterlimit:4;stroke-dasharray:none;stroke-opacity:1"
       id="path5155-12"
       cx="148.67149"
       cy="97.66301"
       rx="3.9248939"
       ry="3.9248941" />
    <ellipse
       style="display:inline;fill:none;fill-opacity:1;stroke:#000000;stroke-width:0.654149;stroke-miterlimit:4;stroke-dasharray:none;stroke-opacity:1"
       id="path5155-12-6"
       cx="148.76976"
       cy="185.77136"
       rx="3.9248939"
       ry="3.9248941" />
    <ellipse
       style="display:inline;fill:none;fill-opacity:1;stroke:#000000;stroke-width:0.654149;stroke-miterlimit:4;stroke-dasharray:none;stroke-opacity:1"
       id="path5155-12-1"
       cx="234.04724"
       cy="97.66301"
       rx="3.9248941"
       ry="3.9248939" />
    <ellipse
       style="display:inline;fill:none;fill-opacity:1;stroke:#000000;stroke-width:0.654149;stroke-miterlimit:4;stroke-dasharray:none;stroke-opacity:1"
       id="path5155-12-69"
       cx="234.04724"
       cy="185.77136"
       rx="3.9248941"
       ry="3.9248939" />
    <circle
       style="fill:none;fill-opacity:1;stroke:#000000;stroke-width:0.82261723;stroke-miterlimit:4;stroke-dasharray:none;stroke-opacity:1"
       id="path4793"
       cx="314.95938"
       cy="143.229"
       r="29.824911" />
    <circle
       style="display:inline;fill:none;fill-opacity:1;stroke:#000000;stroke-width:1.01756513;stroke-miterlimit:4;stroke-dasharray:none;stroke-opacity:1"
       id="path5155-12-6-0"
       cx="148.86615"
       cy="217.18896"
       r="6.1053905" />
    <circle
       style="display:inline;fill:none;fill-opacity:1;stroke:#000000;stroke-width:1.01756513;stroke-miterlimit:4;stroke-dasharray:none;stroke-opacity:1"
       id="path5155-12-6-0-9"
       cx="194.86615"
       cy="217.18896"
       r="6.1053905" />
    <circle
       style="display:inline;fill:none;fill-opacity:1;stroke:#000000;stroke-width:1.01756513;stroke-miterlimit:4;stroke-dasharray:none;stroke-opacity:1"
       id="path5155-12-6-0-5"
       cx="240.86615"
       cy="217.18896"
       r="6.1053905" />
    <circle
       style="display:inline;fill:none;fill-opacity:1;stroke:#000000;stroke-width:1.01756513;stroke-miterlimit:4;stroke-dasharray:none;stroke-opacity:1"
       id="path5155-12-6-0-8"
       cx="286.86615"
       cy="217.18896"
       r="6.1053905" />
    <circle
       style="display:inline;fill:none;fill-opacity:1;stroke:#000000;stroke-width:1.01756513;stroke-miterlimit:4;stroke-dasharray:none;stroke-opacity:1"
       id="path5155-12-6-0-4"
       cx="332.86615"
       cy="217.18896"
       r="6.1053905" />
  </g>
  <g
     inkscape:groupmode="layer"
     id="layer2"
     inkscape:label="8 [feed=3000]"
     style="display:inline"
     transform="translate(0,2.0117187e-6)" />
  <g
     inkscape:groupmode="layer"
     id="layer5"
     inkscape:label="10 [feed=3000,ppm=1]"
     style="display:inline"
     transform="translate(0,2.0117187e-6)" />
  <g
     inkscape:groupmode="layer"
     id="layer6"
     inkscape:label="12 [feed=3000,ppm=5]"
     style="display:inline"
     transform="translate(0,2.0117187e-6)" />
</svg>
